{"title":"PBS Nova - Mystery of the Megaflood (2005) DVDrip.avi","uid":6675771,"size":733370368,"categoryP":"video","categoryS":"tv_shows","magnet":"?xt=urn:btih:224daf663671f273aa5f8bb01d9bc1df50fce906&amp;dn=PBS+Nova+-+Mystery+of+the+Megaflood+%282005%29+DVDrip.avi&amp;tr=udp%3A%2F%2Ftracker.openbittorrent.com%3A80&amp;tr=udp%3A%2F%2Fopen.demonii.com%3A1337&amp;tr=udp%3A%2F%2Ftracker.coppersurfer.tk%3A6969&amp;tr=udp%3A%2F%2Fexodus.desync.com%3A6969","seeders":2,"leechers":1,"uploader":"V100","files":-1,"time":1316020547,"description":"Documentary on how the Channel Scablands in Washington were formed.\n\nDVDrip, 54 minutes, Engish, color. Please help keep me seeded.\n\n\nGeneral \nFormat : AVI \nFormat/Info : Audio Video Interleave \nFile size : 699 MiB \nDuration : 54mn 14s \nOverall bit rate : 1 803 Kbps \nWriting application : VirtualDubMod 1.5.4.1 (build 2178/release) \nWriting library : VirtualDubMod build 2178/release \n\nVideo \nID : 0 \nFormat : MPEG-4 Visual \nFormat profile : Advanced Simple@L5 \nFormat settings, BVOP : 1 \nFormat settings, QPel : No \nFormat settings, GMC : No warppoints \nFormat settings, Matrix : Custom \nCodec ID : XVID \nCodec ID/Hint : XviD \nDuration : 54mn 14s \nBit rate : 1 671 Kbps \nWidth : 640 pixels \nHeight : 368 pixels \nDisplay aspect ratio : 16:9 \nFrame rate : 29.970 fps \nColor space : YUV \nChroma subsampling : 4:2:0 \nBit depth : 8 bits \nScan type : Progressive \nCompression mode : Lossy \nBits/(Pixel*Frame) : 0.237 \nStream size : 648 MiB (93%) \nWriting library : XviD 1.2.1 (UTC 2008-12-04) \n\nAudio \nID : 1 \nFormat : MPEG Audio \nFormat version : Version 1 \nFormat profile : Layer 3 \nMode : Joint stereo \nMode extension : MS Stereo \nCodec ID : 55 \nCodec ID/Hint : MP3 \nDuration : 54mn 14s \nBit rate mode : Variable \nBit rate : 118 Kbps \nNominal bit rate : 128 Kbps \nChannel(s) : 2 channels \nSampling rate : 48.0 KHz \nCompression mode : Lossy \nStream size : 45.9 MiB (7%) \nAlignment : Aligned on interleaves \nInterleave, duration : 24 ms (0.72 video frame) \nInterleave, preload duration : 496 ms \nWriting library : LAME3.98r \nEncoding settings : -m j -V 4 -q 2 -lowpass 17 --abr 128 \n","torrent":{"xt":"urn:btih:224daf663671f273aa5f8bb01d9bc1df50fce906","amp;dn":"PBS+Nova+-+Mystery+of+the+Megaflood+%282005%29+DVDrip.avi","amp;tr":["udp%3A%2F%2Ftracker.openbittorrent.com%3A80","udp%3A%2F%2Fopen.demonii.com%3A1337","udp%3A%2F%2Ftracker.coppersurfer.tk%3A6969","udp%3A%2F%2Fexodus.desync.com%3A6969"],"infoHash":"224daf663671f273aa5f8bb01d9bc1df50fce906","infoHashBuffer":{"type":"Buffer","data":[34,77,175,102,54,113,242,115,170,95,139,176,29,155,193,223,80,252,233,6]},"announce":[],"urlList":[]}}